# xmcd
#
# Track frame offsets:
#	150
#	21245
#	40602
#	63965
#	83662
#	104100
#
# Disc length: 1691 seconds
#
# Revision: 1
# Processed by: cddbd v1.4PL0 Copyright (c) Steve Scherf et al.
# Submitted via: EasyCDDAExtractor 5.0.6
#
DISCID=44069906
DTITLE=Roboshop Mania - Termina
DYEAR=2000
DGENRE=
TTITLE0=Crew
TTITLE1=Idle Wild
TTITLE2=Forever young
TTITLE3=Fly me down Falling up
TTITLE4=make it snappy
TTITLE5=Phone or Mail
EXTD=
EXTT0=
EXTT1=
EXTT2=
EXTT3=
EXTT4=
EXTT5=
PLAYORDER=
